PathFileType	4	(X/Y/Z)	Patient4_TMGait_0pt4_01_right_35.trc.trc
DataRate	CameraRate	NumFrames	NumMarkers	Units	OrigDataRate	OrigDataStartFrame	OrigNumFrames
73.298429319372	73.298429319372	4	33	mm	73.298429319372	106	       141
Frame#	Time	Sacral			L.Shoulder			Chest			R.Shoulder			Neck			R.ASIS			L.ASIS			R.Thigh.Superior			R.Thigh.Lateral			R.Thigh.Inferior			R.Patella			L.Thigh.Superior			L.Thigh.Lateral			L.Thigh.Inferior			L.Patella			L.Shank.Superior			L.Shank.Lateral			L.Shank.Inferior			R.Shank.Superior			R.Shank.Lateral			R.Shank.Inferior			R.Heel			R.Midfoot.Superior			R.Midfoot.Lateral			R.Toe			L.Heel			L.Midfoot.Lateral			L.Midfoot.Superior			L.Toe			L.Elbow			L.Wrist			R.Elbow			R.Wrist			
		X1	Y1	Z1	X2	Y2	Z2	X3	Y3	Z3	X4	Y4	Z4	X5	Y5	Z5	X6	Y6	Z6	X7	Y7	Z7	X8	Y8	Z8	X9	Y9	Z9	X10	Y10	Z10	X11	Y11	Z11	X12	Y12	Z12	X13	Y13	Z13	X14	Y14	Z14	X15	Y15	Z15	X16	Y16	Z16	X17	Y17	Z17	X18	Y18	Z18	X19	Y19	Z19	X20	Y20	Z20	X21	Y21	Z21	X22	Y22	Z22	X23	Y23	Z23	X24	Y24	Z24	X25	Y25	Z25	X26	Y26	Z26	X27	Y27	Z27	X28	Y28	Z28	X29	Y29	Z29	X30	Y30	Z30	X31	Y31	Z31	X32	Y32	Z32	X33	Y33	Z33	

106	46.972500000000	803.340644474147	1004.860089456486	432.607473982235	982.228020069769	1438.396344009205	244.599546966076	1076.993588918396	1374.118298461363	412.378025091066	981.957497179238	1446.610522868613	581.076012895358	958.294112210614	1501.535855373927	400.852377469420	1033.720265942034	957.101338580654	553.767737717089	1024.335184589656	968.999965459279	278.246688702045	1121.783495053116	787.269342289280	524.856981581386	1090.672184446728	667.140390917105	604.685172493056	1176.234063262518	627.955024073831	521.765297978287	1204.990057307353	524.571038620639	548.988474867274	1064.261035330641	749.002680256628	311.124860273773	969.279023515173	635.914385605549	252.778294073771	1049.230887531513	555.597965455939	316.455737906570	1045.577902542628	487.746725829204	328.156106749304	1018.027301523026	415.523056854560	320.992319938834	925.943011428967	302.161422126095	271.334160165119	973.412849172959	191.435448845576	345.683732521969	1146.643252941990	439.808911049759	561.551926842517	1042.309151640232	372.796865709706	628.092421850826	1055.346095323981	261.662431470837	582.412700924820	877.683457105972	150.979658749586	563.626641586715	1056.565255823556	136.617055786868	601.632175298335	951.239155077244	109.288412132679	636.862301758810	1146.112296603317	42.103890574620	626.043563222414	843.306626026281	38.279813878166	393.247864991422	915.151338111786	35.175292270498	310.128568453318	998.789212641015	95.966546182940	335.361004166433	1127.196853763277	44.002746510973	303.579937990328	1000.408803276964	1093.051093314060	109.513271062911	1196.533008790917	918.589953201767	108.172171234133	885.518599514214	1113.605695346204	696.696281310531	908.264142808647	852.935673125099	705.010166280670	
107	46.986142857143	802.689200676060	1005.258182826635	431.276902841206	984.015705009471	1438.270475548403	244.140948560494	1077.204944184536	1373.918640512913	412.779626445441	980.983804007172	1446.858133418693	580.593967984856	958.795621620402	1501.599848275486	400.306470813772	1032.132764286382	957.218346906146	554.095408754397	1025.116541561922	969.240591971695	278.184407826178	1119.683053561214	787.225864550387	525.193189999408	1088.673109510154	667.325112516846	605.292072980506	1173.647554788141	627.862253347267	522.123065667704	1203.446398027575	526.508142133679	549.387091384649	1062.025548161029	748.281317351106	311.773306055247	966.194918629083	636.032928137522	252.417427391694	1044.880046881163	554.984389922494	316.519384986896	1040.460350123909	487.355943272415	328.095893524428	1012.912280455048	415.371851208280	320.791406515049	920.670068229178	302.121120931629	270.969620358269	967.938845691608	191.348085054259	345.510831226273	1149.162465797996	440.572367924506	561.982856777077	1049.181713993408	367.943290975520	628.851424952051	1068.182895750678	257.797899815894	582.791174367482	897.065158527065	137.519753362703	564.142603029375	1076.553455555224	132.793730270180	601.812167457044	972.964708697663	99.934385329431	637.253426243107	1171.054369055261	43.470650487377	626.137779962012	837.823011568207	38.269028541228	393.226209355817	909.648850349681	35.132860818076	310.116446199232	993.291460526963	95.931746214505	335.334553616656	1121.720171984885	43.917991438789	303.601270640915	1002.888794533571	1093.255080960919	108.662197654503	1204.141970303421	924.845185659075	108.063397427500	878.076206661095	1115.998313355189	695.344319656140	894.729813419748	854.935839781817	703.564321243330	
108	46.999785714286	802.073217354239	1005.586118081666	430.077414355878	985.831474921085	1437.987339815993	243.850519821847	1077.508869678972	1373.568942865033	413.294754933391	980.225865180851	1447.006729335722	580.257950792252	959.401701196070	1501.547678731470	399.897318970212	1030.587316576386	957.124565953437	554.560127547562	1025.854379393416	969.331123058610	278.250768397231	1117.165646735663	786.564022856795	525.837605545640	1085.722937412203	666.971226850042	606.093946069682	1170.243672951271	627.073451022299	522.870725052879	1200.848610255367	527.910104094400	549.939005211769	1059.814690029207	747.540483342341	312.353659768338	963.108620979520	636.133678833750	252.073509276392	1040.559092953339	554.371720869308	316.525549046607	1035.379002323269	486.958382470653	327.968303482745	1007.842506356859	415.217512237245	320.551245941152	915.401971695301	302.095286346166	270.599703889633	962.481396159575	191.256181681450	345.308909309817	1150.934153154448	441.089180387126	562.521241401349	1055.957500483936	362.853019416232	629.867343800178	1081.054007856475	254.136609488878	583.275822177470	917.377891563802	124.321491251729	564.909709713665	1096.972811694918	129.440658336120	601.936112920674	995.547711172140	90.999535126603	637.726767108648	1196.286891114009	45.667213330530	625.951574813193	832.359568837452	38.268039908460	393.195514577086	904.155742631765	35.088455724273	310.102888254259	987.805147473298	95.887279359234	335.302523588706	1116.253361990978	43.812143747242	303.619787684563	1005.355744127067	1093.246341491319	108.105423023851	1211.390580429731	930.874443581869	108.102033800360	871.291072897727	1118.307535750997	694.193504809897	882.669944137226	856.999567071255	702.119676429019	
109	47.013428571429	801.514970739871	1005.849203636363	429.028182365745	987.634994968884	1437.577369796944	243.736882341342	1077.890256529174	1373.099037703085	413.919738856554	979.672125727505	1447.064897860201	580.079888573212	960.088626930169	1501.396464311498	399.636519845121	1029.117422054085	956.846973522628	555.154098347204	1026.513493870600	969.269203446334	278.459542349538	1114.258459270922	785.306740459074	526.789997397412	1081.859439384130	666.105184140905	607.076864730433	1166.077428098427	625.630042604785	523.973753327298	1197.256736030802	528.776090134905	550.580583353680	1057.659216871675	746.783103074406	312.856354635417	960.025471960041	636.221715145700	251.772253186066	1036.280634956582	553.761923141977	316.487635733634	1030.348717200080	486.554940217268	327.793416056692	1002.829613584630	415.064714662140	320.290304888953	910.147124647609	302.094023129351	270.245755421150	957.048038174641	191.164122118862	345.087902688927	1151.939223564998	441.405351741433	563.129918986212	1062.538934322383	357.689788433123	631.079008641575	1093.761837338003	250.837282712333	583.819553212469	938.333787707607	111.707279408584	565.849651090460	1117.518450828998	126.731119950312	601.976595957812	1018.647824254392	82.739637480268	638.223657233737	1221.418095577063	48.789265807269	625.466409019882	826.910022378163	38.281399407602	393.155446785688	898.671828664792	35.045188316610	310.087326529370	982.331612627118	95.834137524834	335.263355969522	1110.794798400054	43.686585846335	303.633801934535	1007.837516109518	1093.053832349682	107.859975384299	1218.264259579788	936.611407192662	108.289223075515	865.201327298667	1120.479358189258	693.237384182961	872.096517001306	859.014622021277	700.747931718043	
